<svg width="19" height="15" viewBox="0 0 19 15" fill="none" xmlns="http://www.w3.org/2000/svg">
<path opacity="0.3" d="M18.2737 1.91806C17.5987 2.20276 16.8828 2.38967 16.1497 2.47258C16.9121 2.03615 17.4986 1.34645 17.7746 0.52344C17.0487 0.933768 16.2546 1.22286 15.4264 1.37822C14.7275 0.667178 13.7501 0.264428 12.7275 0.266119C10.6861 0.266119 9.02929 1.84291 9.02929 3.78799C9.02929 4.06438 9.06194 4.33375 9.12588 4.59096C6.05208 4.44384 3.32787 3.04221 1.5036 0.910901C1.18506 1.43047 1.00337 2.03615 1.00337 2.68181C1.00337 3.90323 1.65596 4.98149 2.64802 5.61323C2.06066 5.59608 1.48618 5.445 0.972784 5.17264V5.21756C0.972784 6.92361 2.24761 8.34726 3.93849 8.67151C3.39392 8.81198 2.82294 8.83258 2.26877 8.73176C2.73956 10.1313 4.10569 11.1494 5.7232 11.179C4.4578 12.1222 2.86352 12.6863 1.13056 12.6863C0.835882 12.686 0.54147 12.6696 0.248779 12.637C1.88515 13.6361 3.82936 14.22 5.91754 14.22C12.7195 14.22 16.4384 8.85182 16.4384 4.1966C16.4384 4.04433 16.4384 3.89206 16.4269 3.74089C17.1505 3.24214 17.7754 2.62495 18.2725 1.91806H18.2737Z" fill="white"/>
</svg>
